<?xml version="1.0" encoding="utf-8"?>
<!-- Generator: Adobe Illustrator 23.0.1, SVG Export Plug-In . SVG Version: 6.00 Build 0)  -->
<svg version="1.1" id="Layer_1" xmlns="http://www.w3.org/2000/svg" xmlns:xlink="http://www.w3.org/1999/xlink" x="0px" y="0px"
	 viewBox="0 0 412.8 96.4" style="enable-background:new 0 0 412.8 96.4;" xml:space="preserve">
<style type="text/css">
	.st0{fill:#00B7B1;}
	.st1{fill:#434A51;}
</style>
<g>
	<g>
		<path class="st0" d="M33.1,96.2l-1.3-0.5C12.8,88-0.1,69.7,0,49.2C0.2,20.9,24.3-1.9,53.2,0.1c24.4,1.8,44.2,21.6,45.7,46.1
			c1.4,21.8-11.2,41.4-31.2,49.3L66.5,96c-1.1,0.4-2.4,0-3-1l-18-29.7c-0.7-1.1,0.1-2.4,1.3-2.5l3.4-0.3c6.6-0.5,12.1-5.8,12.4-12.4
			c0.3-7.8-6.2-14.1-14.1-13.5c-6.6,0.5-11.9,6.8-11.9,13.4v44C36.5,95.7,34.7,96.9,33.1,96.2z M57.2,69.1l10.6,17.5
			C82,79.7,90.9,65.4,90.9,49.5c0-22.8-18.6-41.4-41.4-41.4S8.1,26.7,8.1,49.5c0,14.9,7.8,28.3,20.3,35.6V49.5
			c0-11.6,9.5-21.1,21.1-21.1s21.1,9.5,21.1,21.1C70.6,58.3,65.1,66,57.2,69.1z"/>
	</g>
	<g>
		<path class="st1" d="M189.2,38.5c-11.4,0-20.6,9.3-20.6,20.6s9.3,20.6,20.6,20.6s20.6-9.3,20.6-20.6S200.6,38.5,189.2,38.5z
			 M189.2,70.3c-6.2,0-11.2-5-11.2-11.2c0-6.2,5-11.2,11.2-11.2c6.2,0,11.2,5,11.2,11.2C200.4,65.3,195.4,70.3,189.2,70.3z"/>
		<path class="st1" d="M236.3,38.5c-11.4,0-20.6,9.3-20.6,20.6s9.3,20.6,20.6,20.6c11.4,0,20.6-9.3,20.6-20.6S247.6,38.5,236.3,38.5
			z M236.3,70.3c-6.2,0-11.2-5-11.2-11.2c0-6.2,5-11.2,11.2-11.2s11.2,5,11.2,11.2C247.5,65.3,242.4,70.3,236.3,70.3z"/>
		<path class="st1" d="M397.8,58.6l15.3-19.1c0.2-0.2,0-0.6-0.3-0.6h-10.7c-0.2,0-0.5,0.1-0.6,0.3l-9.3,12.2l-9.3-12.2
			c-0.1-0.2-0.4-0.3-0.6-0.3h-10.7c-0.3,0-0.5,0.4-0.3,0.6l15.3,19.1l-15.3,19.1c-0.2,0.2,0,0.6,0.3,0.6h10.7c0.2,0,0.5-0.1,0.6-0.3
			l9.3-12.2l9.3,12.2c0.1,0.2,0.4,0.3,0.6,0.3h10.7c0.3,0,0.5-0.4,0.3-0.6L397.8,58.6z"/>
		<path class="st1" d="M370.4,55.8c-1.6-10-10.5-17.6-21-17.3c-10.6,0.3-19.4,9-20,19.6c-0.6,11.8,8.9,21.7,20.6,21.7
			c6.3,0,11.9-2.8,15.6-7.2c0.4-0.5,0.3-1.3-0.3-1.7l-6.1-3.9c-0.5-0.3-1-0.2-1.4,0.2c-2,2-4.8,3.2-7.8,3.2c-4.8,0-8.9-3-10.5-7.2
			h20.9h9.8c0.2-1.3,0.4-2.6,0.4-3.9C370.7,58,370.6,56.9,370.4,55.8L370.4,55.8z M360.7,55.8h-21.4c1.4-4.6,5.7-7.9,10.7-7.9
			C355,47.9,359.3,51.2,360.7,55.8L360.7,55.8z"/>
		<path class="st1" d="M305.5,38.5c-4.4,0-8.5,2.6-11.5,6.3c-3.1-3.8-7.9-6.3-13.2-6.3c-2.8,0-5.3,1.1-7.6,2.9v-1.8
			c0-0.6-0.5-1.2-1.1-1.2h-8.3v39.8h8.3c0.6,0,1.1-0.5,1.1-1.1V55.5c0-4.2,3.4-7.6,7.6-7.6c4.2,0,7.6,3.4,7.6,7.6v22.7h8.3
			c0.6,0,1.1-0.5,1.1-1.1V55.5c0-4.2,3.4-7.6,7.6-7.6c4.2,0,7.6,3.4,7.6,7.6v22.7h8.3c0.6,0,1.1-0.5,1.1-1.1V55.5
			C322.6,46.1,314.9,38.5,305.5,38.5z"/>
		<path class="st1" d="M152.7,60.2c6-2.4,10.3-8.4,10.3-15.3v-2.3c0-9.1-7.4-16.5-16.5-16.5h-22.7v52h8.3c0.6,0,1.1-0.5,1.1-1.1
			V61.4h8.3l10.8,16.5c0.1,0.2,0.4,0.4,0.6,0.4h10.5c0.5,0,0.7-0.5,0.5-0.9L152.7,60.2z M133.3,35.6h13.2c3.9,0,7.1,3.2,7.1,7.1V45
			c0,3.9-3.2,7.1-7.1,7.1h-13.2V35.6z"/>
	</g>
</g>
</svg>
